{
    "asset" : {
        "generator" : "Khronos glTF Blender I/O v1.2.75",
        "version" : "2.0"
    },
    "scene" : 0,
    "scenes" : [
        {
            "name" : "Scene",
            "nodes" : [
                0
            ]
        }
    ],
    "nodes" : [
        {
            "mesh" : 0,
            "name" : "tombstone_stone_base_4x4_003.001"
        }
    ],
    "materials" : [
        {
            "doubleSided" : true,
            "name" : "Material.001",
            "pbrMetallicRoughness" : {}
        }
    ],
    "meshes" : [
        {
            "name" : "Plane.001",
            "primitives" : [
                {
                    "attributes" : {
                        "POSITION" : 0,
                        "NORMAL" : 1,
                        "TEXCOORD_0" : 2,
                        "TEXCOORD_1" : 3,
                        "TEXCOORD_2" : 4,
                        "TEXCOORD_3" : 5,
                        "TEXCOORD_4" : 6,
                        "TEXCOORD_5" : 7,
                        "TEXCOORD_6" : 8,
                        "TEXCOORD_7" : 9
                    },
                    "indices" : 10,
                    "material" : 0
                }
            ]
        }
    ],
    "accessors" : [
        {
            "bufferView" : 0,
            "componentType" : 5126,
            "count" : 1518,
            "max" : [
                1.899999976158142,
                3.263106107711792,
                1.9282339811325073
            ],
            "min" : [
                -1.899999976158142,
                0,
                -1.899999976158142
            ],
            "type" : "VEC3"
        },
        {
            "bufferView" : 1,
            "componentType" : 5126,
            "count" : 1518,
            "type" : "VEC3"
        },
        {
            "bufferView" : 2,
            "componentType" : 5126,
            "count" : 1518,
            "type" : "VEC2"
        },
        {
            "bufferView" : 3,
            "componentType" : 5126,
            "count" : 1518,
            "type" : "VEC2"
        },
        {
            "bufferView" : 4,
            "componentType" : 5126,
            "count" : 1518,
            "type" : "VEC2"
        },
        {
            "bufferView" : 5,
            "componentType" : 5126,
            "count" : 1518,
            "type" : "VEC2"
        },
        {
            "bufferView" : 6,
            "componentType" : 5126,
            "count" : 1518,
            "type" : "VEC2"
        },
        {
            "bufferView" : 7,
            "componentType" : 5126,
            "count" : 1518,
            "type" : "VEC2"
        },
        {
            "bufferView" : 8,
            "componentType" : 5126,
            "count" : 1518,
            "type" : "VEC2"
        },
        {
            "bufferView" : 9,
            "componentType" : 5126,
            "count" : 1518,
            "type" : "VEC2"
        },
        {
            "bufferView" : 10,
            "componentType" : 5123,
            "count" : 1548,
            "type" : "SCALAR"
        }
    ],
    "bufferViews" : [
        {
            "buffer" : 0,
            "byteLength" : 18216,
            "byteOffset" : 0
        },
        {
            "buffer" : 0,
            "byteLength" : 18216,
            "byteOffset" : 18216
        },
        {
            "buffer" : 0,
            "byteLength" : 12144,
            "byteOffset" : 36432
        },
        {
            "buffer" : 0,
            "byteLength" : 12144,
            "byteOffset" : 48576
        },
        {
            "buffer" : 0,
            "byteLength" : 12144,
            "byteOffset" : 60720
        },
        {
            "buffer" : 0,
            "byteLength" : 12144,
            "byteOffset" : 72864
        },
        {
            "buffer" : 0,
            "byteLength" : 12144,
            "byteOffset" : 85008
        },
        {
            "buffer" : 0,
            "byteLength" : 12144,
            "byteOffset" : 97152
        },
        {
            "buffer" : 0,
            "byteLength" : 12144,
            "byteOffset" : 109296
        },
        {
            "buffer" : 0,
            "byteLength" : 12144,
            "byteOffset" : 121440
        },
        {
            "buffer" : 0,
            "byteLength" : 3096,
            "byteOffset" : 133584
        }
    ],
    "buffers" : [
        {
            "byteLength" : 136680,
            "uri" : "data:application/octet-stream;base64,"
        }
    ]
}
